<?xml version="1.0" encoding="UTF-8" standalone="no"?><!DOCTYPE svg PUBLIC "-//W3C//DTD SVG 1.1//EN" "http://www.w3.org/Graphics/SVG/1.1/DTD/svg11.dtd"><svg width="100%" height="100%" viewBox="0 0 33 32" version="1.1" xmlns="http://www.w3.org/2000/svg" xmlns:xlink="http://www.w3.org/1999/xlink" xml:space="preserve" style="fill-rule:evenodd;clip-rule:evenodd;stroke-linejoin:round;stroke-miterlimit:1.41421;"><g><path d="M16,31.987c-4.34,0 -8.402,-1.7 -11.438,-4.786c-3.012,-3.062 -4.631,-7.109 -4.56,-11.397c0.004,-0.225 0.083,-0.442 0.226,-0.617c0.136,-0.166 0.333,-0.298 0.541,-0.351c1.307,-0.33 2.414,-1.211 3.036,-2.419c0.232,-0.452 0.766,-0.658 1.243,-0.477c3.229,1.223 6.372,-1.25 6.372,-4.391c0,-0.102 -0.016,-0.199 -0.029,-0.297l-0.027,-0.21c-0.03,-0.277 0.056,-0.553 0.238,-0.764c0.182,-0.211 0.444,-0.335 0.722,-0.345c2.118,-0.072 3.936,-1.555 4.42,-3.605c0.3,-1.263 1.598,-2.044 2.91,-1.741c7.269,1.691 12.346,8.058 12.346,15.485c0,8.775 -7.178,15.915 -16,15.915ZM2.007,16.539c0.115,3.485 1.513,6.751 3.98,9.26c2.658,2.701 6.213,4.188 10.013,4.188c7.72,0 14,-6.242 14,-13.915c0,-6.492 -4.44,-12.058 -10.799,-13.536c-0.224,-0.052 -0.467,0.069 -0.511,0.253c-0.611,2.588 -2.71,4.542 -5.275,5.029c-0.142,3.575 -3.095,6.44 -6.705,6.44c-0.519,0 -1.042,-0.066 -1.564,-0.196c-0.772,1.127 -1.868,1.991 -3.139,2.477Z" style="fill:#fff;fill-rule:nonzero;"/><path d="M12,1.987c-0.26,0 -0.52,-0.11 -0.71,-0.29c-0.18,-0.19 -0.29,-0.45 -0.29,-0.71c0,-0.26 0.11,-0.52 0.29,-0.71c0.38,-0.37 1.05,-0.37 1.42,0c0.18,0.19 0.29,0.44 0.29,0.71c0,0.26 -0.11,0.52 -0.29,0.71c-0.19,0.18 -0.45,0.29 -0.71,0.29Z" style="fill:#fff;fill-rule:nonzero;"/><path d="M26,18.987c-0.26,0 -0.521,-0.11 -0.71,-0.29c-0.181,-0.19 -0.29,-0.45 -0.29,-0.71c0,-0.26 0.109,-0.521 0.29,-0.71c0.38,-0.37 1.04,-0.37 1.42,0c0.189,0.189 0.29,0.45 0.29,0.71c0,0.26 -0.11,0.52 -0.29,0.71c-0.19,0.18 -0.45,0.29 -0.71,0.29Z" style="fill:#fff;fill-rule:nonzero;"/><path d="M22,15.987c-0.26,0 -0.521,-0.11 -0.71,-0.29c-0.181,-0.19 -0.29,-0.45 -0.29,-0.71c0,-0.26 0.109,-0.52 0.29,-0.71c0.37,-0.37 1.05,-0.37 1.42,0c0.18,0.19 0.29,0.45 0.29,0.71c0,0.26 -0.11,0.52 -0.29,0.71c-0.19,0.18 -0.45,0.29 -0.71,0.29Z" style="fill:#fff;fill-rule:nonzero;"/><path d="M15,14.987c-0.26,0 -0.52,-0.11 -0.71,-0.29c-0.18,-0.19 -0.29,-0.45 -0.29,-0.71c0,-0.26 0.11,-0.52 0.29,-0.71c0.38,-0.37 1.05,-0.37 1.42,0c0.18,0.19 0.29,0.45 0.29,0.71c0,0.26 -0.11,0.52 -0.29,0.71c-0.19,0.18 -0.45,0.29 -0.71,0.29Z" style="fill:#fff;fill-rule:nonzero;"/><path d="M15,19.987c-0.26,0 -0.52,-0.11 -0.71,-0.29c-0.18,-0.19 -0.29,-0.45 -0.29,-0.71c0,-0.26 0.11,-0.521 0.29,-0.71c0.38,-0.37 1.04,-0.37 1.42,0c0.18,0.189 0.29,0.439 0.29,0.71c0,0.27 -0.11,0.52 -0.29,0.71c-0.19,0.18 -0.45,0.29 -0.71,0.29Z" style="fill:#fff;fill-rule:nonzero;"/><path d="M12,25.987c-0.26,0 -0.52,-0.11 -0.71,-0.29c-0.18,-0.19 -0.29,-0.45 -0.29,-0.71c0,-0.26 0.11,-0.521 0.29,-0.71c0.37,-0.37 1.05,-0.37 1.42,0c0.18,0.189 0.29,0.45 0.29,0.71c0,0.26 -0.11,0.52 -0.29,0.71c-0.19,0.18 -0.44,0.29 -0.71,0.29Z" style="fill:#fff;fill-rule:nonzero;"/><circle cx="5.5" cy="7.487" r="1.5" style="fill:#fff;"/><circle cx="20.5" cy="9.487" r="1.5" style="fill:#fff;"/><circle cx="19.5" cy="23.487" r="1.5" style="fill:#fff;"/><circle cx="8.5" cy="18.487" r="1.5" style="fill:#fff;"/></g></svg>